<?xml version="1.0" encoding="UTF-8" standalone="no"?>
<!DOCTYPE svg PUBLIC "-//W3C//DTD SVG 1.1//EN" "http://www.w3.org/Graphics/SVG/1.1/DTD/svg11.dtd">
<svg width="100%" height="100%" viewBox="0 0 300 150" version="1.1" xmlns="http://www.w3.org/2000/svg" xmlns:xlink="http://www.w3.org/1999/xlink" xml:space="preserve" xmlns:serif="http://www.serif.com/" style="fill-rule:evenodd;clip-rule:evenodd;stroke-linejoin:round;stroke-miterlimit:2;">
    <g transform="matrix(1,0,0,1,-2070,-300)">
        <g id="Start" transform="matrix(0.75,0,0,0.75,2070,75)">
            <path d="M400,350L400,450C400,477.596 377.596,500 350,500L50,500C22.404,500 0,477.596 0,450L0,350C0,322.404 22.404,300 50,300L350,300C377.596,300 400,322.404 400,350Z" style="fill:rgb(235,235,235);"/>
            <path d="M400,350L400,450C400,477.596 377.596,500 350,500L50,500C22.404,500 0,477.596 0,450L0,350C0,322.404 22.404,300 50,300L350,300C377.596,300 400,322.404 400,350ZM386.803,350C386.803,329.688 370.312,313.197 350,313.197L50,313.197C29.688,313.197 13.197,329.688 13.197,350L13.197,450C13.197,470.312 29.688,486.803 50,486.803L350,486.803C370.312,486.803 386.803,470.312 386.803,450L386.803,350Z"/>
            <g transform="matrix(1,0,0,1,-30.9654,6.14883)">
                <g transform="matrix(128,0,0,128,60,440)">
                    <path d="M0.544,-0.081C0.612,-0.198 0.591,-0.359 0.447,-0.384C0.404,-0.391 0.359,-0.394 0.316,-0.397C0.205,-0.404 0.273,-0.524 0.353,-0.592C0.374,-0.61 0.423,-0.638 0.419,-0.613C0.412,-0.564 0.419,-0.512 0.473,-0.501C0.585,-0.479 0.602,-0.625 0.557,-0.719C0.477,-0.887 0.246,-0.757 0.125,-0.609C0.022,-0.483 -0.002,-0.302 0.168,-0.266C0.215,-0.256 0.349,-0.245 0.383,-0.214C0.423,-0.18 0.364,-0.136 0.309,-0.134C0.285,-0.133 0.263,-0.156 0.239,-0.152C0.15,-0.138 0.139,-0.023 0.208,0.031C0.317,0.115 0.478,0.034 0.544,-0.081Z" style="fill-rule:nonzero;"/>
                </g>
                <g transform="matrix(128,0,0,128,139.616,440)">
                    <path d="M0.325,0.038C0.341,0.024 0.353,0.002 0.353,-0.019C0.354,-0.047 0.342,-0.073 0.336,-0.099C0.319,-0.174 0.313,-0.252 0.314,-0.329C0.314,-0.342 0.315,-0.354 0.317,-0.367C0.318,-0.369 0.319,-0.376 0.321,-0.377C0.327,-0.381 0.348,-0.376 0.355,-0.376C0.372,-0.374 0.391,-0.375 0.407,-0.382C0.426,-0.39 0.44,-0.404 0.448,-0.424C0.46,-0.456 0.454,-0.509 0.426,-0.529C0.406,-0.544 0.377,-0.542 0.352,-0.544C0.345,-0.544 0.338,-0.544 0.332,-0.547C0.331,-0.549 0.33,-0.561 0.331,-0.563C0.332,-0.602 0.341,-0.64 0.344,-0.679C0.345,-0.691 0.346,-0.705 0.34,-0.717C0.334,-0.728 0.323,-0.737 0.311,-0.743C0.275,-0.76 0.215,-0.763 0.191,-0.731C0.182,-0.719 0.177,-0.703 0.175,-0.688C0.168,-0.65 0.167,-0.612 0.157,-0.575C0.157,-0.572 0.154,-0.561 0.151,-0.558C0.142,-0.549 0.127,-0.549 0.114,-0.548C0.096,-0.546 0.075,-0.543 0.061,-0.53C0.043,-0.513 0.037,-0.483 0.038,-0.458C0.039,-0.438 0.042,-0.417 0.052,-0.4C0.058,-0.39 0.067,-0.382 0.077,-0.378C0.094,-0.371 0.114,-0.372 0.132,-0.374C0.131,-0.358 0.129,-0.343 0.129,-0.327C0.124,-0.248 0.127,-0.169 0.136,-0.09C0.141,-0.046 0.15,0.003 0.18,0.036C0.218,0.078 0.283,0.077 0.325,0.038Z" style="fill-rule:nonzero;"/>
                </g>
                <g transform="matrix(128,0,0,128,197.472,440)">
                    <path d="M0.299,-0.128C0.315,-0.137 0.361,-0.168 0.379,-0.166C0.433,-0.158 0.482,-0.087 0.533,-0.108C0.599,-0.135 0.634,-0.236 0.569,-0.265C0.548,-0.274 0.523,-0.277 0.506,-0.292C0.479,-0.314 0.466,-0.354 0.434,-0.368C0.365,-0.396 0.3,-0.299 0.226,-0.287C0.244,-0.351 0.303,-0.401 0.369,-0.393C0.536,-0.374 0.524,-0.562 0.357,-0.578C0.248,-0.589 0.136,-0.495 0.084,-0.4C0.021,-0.285 0.005,-0.114 0.134,-0.091C0.189,-0.081 0.249,-0.101 0.299,-0.128Z" style="fill-rule:nonzero;"/>
                </g>
                <g transform="matrix(128,0,0,128,278.368,440)">
                    <path d="M0.231,-0.065C0.248,-0.076 0.262,-0.096 0.267,-0.117C0.274,-0.144 0.272,-0.172 0.274,-0.2C0.276,-0.229 0.283,-0.259 0.293,-0.287C0.305,-0.318 0.316,-0.351 0.333,-0.38C0.338,-0.388 0.343,-0.397 0.35,-0.403C0.357,-0.409 0.368,-0.414 0.377,-0.412C0.393,-0.408 0.405,-0.393 0.421,-0.388C0.44,-0.382 0.453,-0.384 0.469,-0.394C0.505,-0.419 0.517,-0.479 0.5,-0.519C0.487,-0.549 0.458,-0.573 0.428,-0.585C0.389,-0.6 0.34,-0.591 0.305,-0.57C0.273,-0.55 0.25,-0.518 0.23,-0.487C0.229,-0.505 0.225,-0.524 0.216,-0.54C0.209,-0.552 0.197,-0.561 0.187,-0.569C0.163,-0.587 0.108,-0.579 0.081,-0.564C0.068,-0.557 0.056,-0.545 0.051,-0.53C0.042,-0.503 0.045,-0.473 0.05,-0.445C0.064,-0.362 0.079,-0.279 0.084,-0.194C0.086,-0.162 0.087,-0.128 0.098,-0.097C0.103,-0.083 0.113,-0.069 0.126,-0.061C0.14,-0.053 0.158,-0.051 0.174,-0.052C0.194,-0.052 0.214,-0.055 0.231,-0.065Z" style="fill-rule:nonzero;"/>
                </g>
                <g transform="matrix(128,0,0,128,347.36,440)">
                    <path d="M0.325,0.038C0.341,0.024 0.353,0.002 0.353,-0.019C0.354,-0.047 0.342,-0.073 0.336,-0.099C0.319,-0.174 0.313,-0.252 0.314,-0.329C0.314,-0.342 0.315,-0.354 0.317,-0.367C0.318,-0.369 0.319,-0.376 0.321,-0.377C0.327,-0.381 0.348,-0.376 0.355,-0.376C0.372,-0.374 0.391,-0.375 0.407,-0.382C0.426,-0.39 0.44,-0.404 0.448,-0.424C0.46,-0.456 0.454,-0.509 0.426,-0.529C0.406,-0.544 0.377,-0.542 0.352,-0.544C0.345,-0.544 0.338,-0.544 0.332,-0.547C0.331,-0.549 0.33,-0.561 0.331,-0.563C0.332,-0.602 0.341,-0.64 0.344,-0.679C0.345,-0.691 0.346,-0.705 0.34,-0.717C0.334,-0.728 0.323,-0.737 0.311,-0.743C0.275,-0.76 0.215,-0.763 0.191,-0.731C0.182,-0.719 0.177,-0.703 0.175,-0.688C0.168,-0.65 0.167,-0.612 0.157,-0.575C0.157,-0.572 0.154,-0.561 0.151,-0.558C0.142,-0.549 0.127,-0.549 0.114,-0.548C0.096,-0.546 0.075,-0.543 0.061,-0.53C0.043,-0.513 0.037,-0.483 0.038,-0.458C0.039,-0.438 0.042,-0.417 0.052,-0.4C0.058,-0.39 0.067,-0.382 0.077,-0.378C0.094,-0.371 0.114,-0.372 0.132,-0.374C0.131,-0.358 0.129,-0.343 0.129,-0.327C0.124,-0.248 0.127,-0.169 0.136,-0.09C0.141,-0.046 0.15,0.003 0.18,0.036C0.218,0.078 0.283,0.077 0.325,0.038Z" style="fill-rule:nonzero;"/>
                </g>
            </g>
        </g>
    </g>
</svg>
