<?xml version="1.0" encoding="UTF-8" standalone="no"?>
<!DOCTYPE svg PUBLIC "-//W3C//DTD SVG 1.1//EN" "http://www.w3.org/Graphics/SVG/1.1/DTD/svg11.dtd">
<svg width="100%" height="100%" viewBox="0 0 300 150" version="1.1" xmlns="http://www.w3.org/2000/svg" xmlns:xlink="http://www.w3.org/1999/xlink" xml:space="preserve" xmlns:serif="http://www.serif.com/" style="fill-rule:evenodd;clip-rule:evenodd;stroke-linejoin:round;stroke-miterlimit:2;">
    <g id="credits" transform="matrix(0.75,0,0,0.75,0,-225)">
        <g>
            <g id="credits1" serif:id="credits">
                <path d="M400,350L400,450C400,477.596 377.596,500 350,500L50,500C22.404,500 0,477.596 0,450L0,350C0,322.404 22.404,300 50,300L350,300C377.596,300 400,322.404 400,350Z" style="fill:rgb(235,235,235);"/>
                <path d="M400,350L400,450C400,477.596 377.596,500 350,500L50,500C22.404,500 0,477.596 0,450L0,350C0,322.404 22.404,300 50,300L350,300C377.596,300 400,322.404 400,350ZM386.803,350C386.803,329.688 370.312,313.197 350,313.197L50,313.197C29.688,313.197 13.197,329.688 13.197,350L13.197,450C13.197,470.312 29.688,486.803 50,486.803L350,486.803C370.312,486.803 386.803,470.312 386.803,450L386.803,350Z"/>
                <g transform="matrix(1,0,0,1,-37.0038,-11.9778)">
                    <g transform="matrix(96,0,0,96,60,440)">
                        <path d="M0.535,-0.041C0.607,-0.128 0.546,-0.278 0.448,-0.222C0.415,-0.202 0.366,-0.154 0.329,-0.144C0.271,-0.129 0.246,-0.217 0.245,-0.277C0.243,-0.369 0.259,-0.466 0.334,-0.563C0.357,-0.593 0.456,-0.544 0.489,-0.563C0.566,-0.607 0.568,-0.683 0.522,-0.726C0.446,-0.797 0.308,-0.797 0.228,-0.73C0.073,-0.597 0.02,-0.271 0.102,-0.085C0.179,0.089 0.413,0.105 0.535,-0.041Z" style="fill:rgb(0,100,255);fill-rule:nonzero;"/>
                    </g>
                    <g transform="matrix(96,0,0,96,117.984,440)">
                        <path d="M0.231,-0.065C0.248,-0.076 0.262,-0.096 0.267,-0.117C0.274,-0.144 0.272,-0.172 0.274,-0.2C0.276,-0.229 0.283,-0.259 0.293,-0.287C0.305,-0.318 0.316,-0.351 0.333,-0.38C0.338,-0.388 0.343,-0.397 0.35,-0.403C0.357,-0.409 0.368,-0.414 0.377,-0.412C0.393,-0.408 0.405,-0.393 0.421,-0.388C0.44,-0.382 0.453,-0.384 0.469,-0.394C0.505,-0.419 0.517,-0.479 0.5,-0.519C0.487,-0.549 0.458,-0.573 0.428,-0.585C0.389,-0.6 0.34,-0.591 0.305,-0.57C0.273,-0.55 0.25,-0.518 0.23,-0.487C0.229,-0.505 0.225,-0.524 0.216,-0.54C0.209,-0.552 0.197,-0.561 0.187,-0.569C0.163,-0.587 0.108,-0.579 0.081,-0.564C0.068,-0.557 0.056,-0.545 0.051,-0.53C0.042,-0.503 0.045,-0.473 0.05,-0.445C0.064,-0.362 0.079,-0.279 0.084,-0.194C0.086,-0.162 0.087,-0.128 0.098,-0.097C0.103,-0.083 0.113,-0.069 0.126,-0.061C0.14,-0.053 0.158,-0.051 0.174,-0.052C0.194,-0.052 0.214,-0.055 0.231,-0.065Z" style="fill:rgb(0,100,255);fill-rule:nonzero;"/>
                    </g>
                    <g transform="matrix(96,0,0,96,169.728,440)">
                        <path d="M0.394,-0.038C0.431,-0.048 0.467,-0.061 0.502,-0.077C0.528,-0.09 0.554,-0.108 0.568,-0.133C0.587,-0.167 0.59,-0.216 0.567,-0.248C0.559,-0.259 0.546,-0.27 0.531,-0.271C0.504,-0.274 0.476,-0.265 0.452,-0.254C0.429,-0.242 0.409,-0.226 0.385,-0.217C0.368,-0.211 0.35,-0.205 0.332,-0.203C0.311,-0.201 0.288,-0.197 0.268,-0.204C0.247,-0.211 0.233,-0.231 0.223,-0.25C0.334,-0.228 0.47,-0.284 0.504,-0.385C0.53,-0.462 0.494,-0.556 0.412,-0.585C0.368,-0.6 0.316,-0.6 0.271,-0.588C0.261,-0.585 0.221,-0.571 0.213,-0.566C0.17,-0.538 0.13,-0.503 0.102,-0.461C0.076,-0.42 0.054,-0.374 0.045,-0.327C0.035,-0.274 0.045,-0.216 0.067,-0.166C0.092,-0.112 0.142,-0.059 0.203,-0.04C0.263,-0.021 0.333,-0.022 0.394,-0.038ZM0.295,-0.455C0.315,-0.467 0.344,-0.468 0.351,-0.446C0.354,-0.438 0.345,-0.429 0.339,-0.423C0.31,-0.394 0.266,-0.379 0.224,-0.37C0.238,-0.403 0.263,-0.435 0.295,-0.455Z" style="fill:rgb(0,100,255);fill-rule:nonzero;"/>
                    </g>
                    <g transform="matrix(96,0,0,96,229.056,440)">
                        <path d="M0.486,-0.003C0.501,-0.011 0.513,-0.026 0.519,-0.043C0.525,-0.06 0.527,-0.079 0.528,-0.097C0.531,-0.156 0.526,-0.215 0.526,-0.274C0.526,-0.347 0.527,-0.42 0.531,-0.492C0.534,-0.563 0.541,-0.634 0.534,-0.705C0.532,-0.726 0.527,-0.748 0.513,-0.764C0.501,-0.778 0.483,-0.786 0.465,-0.789C0.433,-0.794 0.361,-0.781 0.339,-0.757C0.321,-0.739 0.323,-0.708 0.325,-0.683C0.33,-0.617 0.336,-0.552 0.34,-0.487C0.293,-0.504 0.24,-0.506 0.193,-0.494C0.163,-0.487 0.135,-0.472 0.112,-0.453C0.078,-0.424 0.056,-0.378 0.051,-0.333C0.045,-0.277 0.044,-0.217 0.061,-0.163C0.067,-0.143 0.08,-0.124 0.096,-0.11C0.106,-0.101 0.119,-0.096 0.132,-0.092C0.154,-0.086 0.178,-0.088 0.201,-0.091C0.222,-0.094 0.243,-0.095 0.265,-0.102C0.292,-0.11 0.318,-0.123 0.343,-0.138C0.344,-0.102 0.345,-0.063 0.362,-0.031C0.367,-0.02 0.375,-0.01 0.385,-0.003C0.396,0.006 0.412,0.01 0.426,0.01C0.447,0.01 0.468,0.006 0.486,-0.003ZM0.258,-0.292C0.246,-0.3 0.247,-0.328 0.259,-0.336C0.27,-0.345 0.285,-0.345 0.298,-0.347C0.308,-0.348 0.331,-0.349 0.337,-0.342C0.342,-0.336 0.345,-0.313 0.346,-0.305C0.329,-0.297 0.311,-0.289 0.292,-0.287C0.281,-0.286 0.268,-0.286 0.258,-0.292Z" style="fill:rgb(0,100,255);fill-rule:nonzero;"/>
                    </g>
                    <g transform="matrix(96,0,0,96,287.616,440)">
                        <path d="M0.207,-0.582C0.225,-0.599 0.24,-0.622 0.245,-0.646C0.247,-0.66 0.246,-0.674 0.241,-0.687C0.209,-0.764 0.103,-0.768 0.063,-0.694C0.051,-0.671 0.047,-0.638 0.06,-0.615C0.065,-0.606 0.073,-0.599 0.08,-0.591C0.109,-0.555 0.173,-0.55 0.207,-0.582ZM0.221,-0.08C0.229,-0.085 0.238,-0.091 0.243,-0.099C0.255,-0.116 0.256,-0.138 0.258,-0.158C0.263,-0.223 0.256,-0.288 0.253,-0.353C0.251,-0.378 0.251,-0.404 0.247,-0.429C0.244,-0.448 0.238,-0.468 0.225,-0.482C0.216,-0.491 0.203,-0.497 0.191,-0.498C0.16,-0.5 0.124,-0.495 0.1,-0.475C0.087,-0.464 0.079,-0.446 0.078,-0.43C0.076,-0.395 0.078,-0.361 0.079,-0.327C0.08,-0.288 0.079,-0.249 0.079,-0.21C0.078,-0.179 0.077,-0.148 0.083,-0.118C0.085,-0.105 0.091,-0.092 0.101,-0.084C0.128,-0.061 0.19,-0.064 0.221,-0.08Z" style="fill:rgb(0,100,255);fill-rule:nonzero;"/>
                    </g>
                    <g transform="matrix(96,0,0,96,318.24,440)">
                        <path d="M0.325,0.038C0.341,0.024 0.353,0.002 0.353,-0.019C0.354,-0.047 0.342,-0.073 0.336,-0.099C0.319,-0.174 0.313,-0.252 0.314,-0.329C0.314,-0.342 0.315,-0.354 0.317,-0.367C0.318,-0.369 0.319,-0.376 0.321,-0.377C0.327,-0.381 0.348,-0.376 0.355,-0.376C0.372,-0.374 0.391,-0.375 0.407,-0.382C0.426,-0.39 0.44,-0.404 0.448,-0.424C0.46,-0.456 0.454,-0.509 0.426,-0.529C0.406,-0.544 0.377,-0.542 0.352,-0.544C0.345,-0.544 0.338,-0.544 0.332,-0.547C0.331,-0.549 0.33,-0.561 0.331,-0.563C0.332,-0.602 0.341,-0.64 0.344,-0.679C0.345,-0.691 0.346,-0.705 0.34,-0.717C0.334,-0.728 0.323,-0.737 0.311,-0.743C0.275,-0.76 0.215,-0.763 0.191,-0.731C0.182,-0.719 0.177,-0.703 0.175,-0.688C0.168,-0.65 0.167,-0.612 0.157,-0.575C0.157,-0.572 0.154,-0.561 0.151,-0.558C0.142,-0.549 0.127,-0.549 0.114,-0.548C0.096,-0.546 0.075,-0.543 0.061,-0.53C0.043,-0.513 0.037,-0.483 0.038,-0.458C0.039,-0.438 0.042,-0.417 0.052,-0.4C0.058,-0.39 0.067,-0.382 0.077,-0.378C0.094,-0.371 0.114,-0.372 0.132,-0.374C0.131,-0.358 0.129,-0.343 0.129,-0.327C0.124,-0.248 0.127,-0.169 0.136,-0.09C0.141,-0.046 0.15,0.003 0.18,0.036C0.218,0.078 0.283,0.077 0.325,0.038Z" style="fill:rgb(0,100,255);fill-rule:nonzero;"/>
                    </g>
                    <g transform="matrix(96,0,0,96,365.28,440)">
                        <path d="M0.28,-0.086C0.373,-0.129 0.413,-0.239 0.346,-0.317C0.329,-0.337 0.24,-0.396 0.232,-0.422C0.226,-0.441 0.254,-0.479 0.266,-0.462C0.305,-0.411 0.377,-0.444 0.397,-0.505C0.412,-0.547 0.366,-0.587 0.324,-0.602C0.134,-0.667 -0.013,-0.478 0.066,-0.358C0.09,-0.321 0.139,-0.307 0.174,-0.281C0.197,-0.263 0.219,-0.228 0.191,-0.223C0.162,-0.218 0.131,-0.221 0.104,-0.212C0.056,-0.195 0.046,-0.134 0.077,-0.094C0.117,-0.041 0.219,-0.059 0.28,-0.086Z" style="fill:rgb(0,100,255);fill-rule:nonzero;"/>
                    </g>
                </g>
            </g>
        </g>
    </g>
</svg>
