<?xml version="1.0" encoding="UTF-8" standalone="no"?>
<!DOCTYPE svg PUBLIC "-//W3C//DTD SVG 1.1//EN" "http://www.w3.org/Graphics/SVG/1.1/DTD/svg11.dtd">
<svg width="100%" height="100%" viewBox="0 0 279 119" version="1.1" xmlns="http://www.w3.org/2000/svg" xmlns:xlink="http://www.w3.org/1999/xlink" xml:space="preserve" xmlns:serif="http://www.serif.com/" style="fill-rule:evenodd;clip-rule:evenodd;stroke-linecap:round;stroke-linejoin:round;stroke-miterlimit:1.5;">
    <g id="ExitButton">
        <path d="M274.31,31.81L274.31,86.81C274.31,101.987 261.987,114.31 246.81,114.31L31.81,114.31C16.632,114.31 4.31,101.987 4.31,86.81L4.31,31.81C4.31,16.632 16.632,4.31 31.81,4.31L246.81,4.31C261.987,4.31 274.31,16.632 274.31,31.81Z" style="fill:rgb(132,11,0);stroke:rgb(246,255,10);stroke-width:8.62px;"/>
        <path d="M114.035,46.959C113.041,47.628 111.767,47.962 110.212,47.962C109.564,47.962 108.808,47.909 107.944,47.804C106.691,48.121 105.568,48.437 104.574,48.754C102.155,49.493 100.557,50.127 99.779,50.655C99.52,54.316 99.52,58.505 99.779,63.221C100.038,63.081 100.686,62.94 101.723,62.799C102.241,62.06 103.127,61.69 104.38,61.69C105.633,61.69 107.091,62.183 108.754,63.169C110.417,64.154 111.249,65.122 111.249,66.073C111.249,66.319 111.184,66.565 111.054,66.812C110.536,67.868 109.737,68.537 108.657,68.818C108.009,68.994 107.058,69.038 105.805,68.95C104.553,68.862 103.753,68.889 103.408,69.029C102.414,69.417 101.205,69.874 99.779,70.402C99.779,73.57 99.909,75.612 100.168,76.527C101.982,76.175 103.494,75.753 104.704,75.26C104.92,75.013 105.136,74.785 105.352,74.573C105.784,74.186 106.561,74.028 107.685,74.098C108.894,74.169 110.147,74.732 111.443,75.788C112.739,76.844 113.387,77.917 113.387,79.009C113.387,79.959 112.89,80.663 111.897,81.121C110.903,81.578 109.24,81.737 106.907,81.596L100.816,84.077C100.557,84.183 99.995,84.535 99.131,85.133C98.483,85.591 97.9,85.82 97.381,85.82C97.209,85.82 97.014,85.802 96.798,85.767C94.509,85.204 92.435,83.743 90.577,81.385C90.448,81.209 90.383,80.997 90.383,80.751C90.383,80.645 90.621,79.941 91.096,78.639C90.621,68.396 90.534,57.484 90.837,45.903C90.534,45.551 90.383,45.199 90.383,44.847C90.383,43.685 91.701,42.946 94.336,42.629C94.897,42.559 95.61,42.682 96.474,42.999C97.036,43.245 97.576,43.474 98.094,43.685L105.87,41.679C106.043,41.644 106.54,41.433 107.361,41.045C107.922,40.764 108.57,40.623 109.305,40.623C109.65,40.623 110.061,40.658 110.536,40.729C111.486,40.869 112.426,41.477 113.355,42.55C114.283,43.624 114.748,44.636 114.748,45.586C114.748,46.185 114.51,46.642 114.035,46.959Z" style="fill:white;fill-rule:nonzero;stroke:rgb(255,248,0);stroke-width:1px;stroke-linecap:butt;stroke-miterlimit:2;"/>
        <path d="M144.102,56.041C144.189,56.639 143.757,57.202 142.806,57.73C141.597,58.434 140.862,58.962 140.603,59.314L133.216,69.769L139.437,79.589C139.523,79.695 139.977,80.241 140.797,81.226C141.316,81.825 141.575,82.37 141.575,82.863C141.575,83.145 141.51,83.426 141.381,83.708C140.646,85.221 139.285,85.978 137.298,85.978C136.477,85.978 135.678,85.837 134.901,85.556C133.821,85.169 133.227,84.667 133.119,84.051C133.011,83.435 132.913,82.828 132.827,82.229L129.328,75.154L125.44,81.49C125.181,82.194 124.878,82.889 124.533,83.576C124.187,84.262 123.517,84.605 122.524,84.605C121.271,84.605 120.061,84.253 118.895,83.549C117.642,82.74 117.102,81.842 117.275,80.857C117.361,80.469 117.653,80.056 118.15,79.616C118.647,79.176 118.96,78.85 119.089,78.639L124.792,70.191L120.774,59.948C120.645,59.596 120.223,59.165 119.511,58.654C118.798,58.144 118.398,57.66 118.312,57.202C118.182,56.393 118.787,55.671 120.126,55.037C121.336,54.509 122.632,54.245 124.014,54.245C124.792,54.245 125.397,54.351 125.829,54.562C126.779,55.055 127.362,55.68 127.578,56.437C127.794,57.193 127.989,57.941 128.161,58.681L130.105,63.644L134.382,57.413C134.771,56.745 135.192,56.058 135.646,55.354C136.099,54.65 136.715,54.175 137.493,53.929C137.968,53.753 138.508,53.665 139.113,53.665C140.236,53.665 141.327,53.92 142.385,54.43C143.443,54.941 144.016,55.477 144.102,56.041Z" style="fill:white;fill-rule:nonzero;stroke:rgb(255,248,0);stroke-width:1px;stroke-linecap:butt;stroke-miterlimit:2;"/>
        <path d="M158.488,44.425C158.617,44.53 158.682,44.706 158.682,44.953C158.682,45.269 158.553,45.815 158.293,46.589C157.991,47.54 157.797,48.191 157.71,48.543C157.624,48.895 157.667,49.669 157.84,50.866C157.84,51.605 157.57,52.089 157.03,52.318C156.49,52.547 155.809,52.661 154.989,52.661C153.822,52.661 152.634,52.468 151.425,52.081C149.956,51.588 149.221,50.937 149.221,50.127C149.221,49.881 149.351,49.537 149.61,49.097C149.869,48.657 150.021,48.297 150.064,48.015C150.15,47.733 150.15,47.029 150.064,45.903C149.977,45.023 150.193,44.425 150.712,44.108C151.403,43.685 152.634,43.474 154.405,43.474C156.349,43.474 157.71,43.791 158.488,44.425ZM159.33,57.308C159.33,57.801 158.995,58.566 158.326,59.605C157.656,60.643 157.321,61.497 157.321,62.165L157.321,77.689C157.321,78.393 157.559,79.387 158.034,80.672C158.509,81.957 158.747,82.845 158.747,83.338C158.747,84.042 158.401,84.57 157.71,84.922C156.63,85.485 155.464,85.767 154.211,85.767C152.569,85.767 151.403,85.309 150.712,84.394C149.805,83.268 149.351,79.906 149.351,74.309C149.351,72.972 149.383,70.886 149.448,68.053C149.513,65.219 149.545,63.151 149.545,61.849C149.545,61.356 149.481,60.713 149.351,59.921C149.221,59.129 149.157,58.557 149.157,58.205C149.157,57.044 149.675,56.041 150.712,55.196C151.144,54.844 151.943,54.668 153.109,54.668C154.276,54.668 155.442,54.817 156.609,55.117C157.775,55.416 158.52,55.759 158.844,56.146C159.168,56.533 159.33,56.921 159.33,57.308Z" style="fill:white;fill-rule:nonzero;stroke:rgb(255,248,0);stroke-width:1px;stroke-linecap:butt;stroke-miterlimit:2;"/>
        <path d="M186.741,60.053C186.395,60.053 185.855,59.939 185.121,59.71C184.386,59.481 183.825,59.367 183.436,59.367C183.133,59.367 182.831,59.42 182.529,59.525L180.131,60.529L180.131,78.586C180.131,79.255 180.574,80.117 181.459,81.173C182.345,82.229 182.701,83.074 182.529,83.708C182.313,84.482 181.675,85.098 180.617,85.556C179.559,86.013 178.425,86.242 177.215,86.242C174.925,86.242 173.349,85.415 172.485,83.761C172.225,83.268 172.074,81.701 172.031,79.061C171.988,77.301 172.009,74.556 172.096,70.825C172.182,66.601 172.225,63.925 172.225,62.799C171.966,62.869 171.534,63.107 170.929,63.512C170.325,63.917 169.72,64.119 169.115,64.119C168.64,64.119 168.035,64.013 167.301,63.802C164.277,62.957 162.765,62.095 162.765,61.215C162.765,61.004 162.829,60.775 162.959,60.529C163.261,59.965 163.823,59.649 164.644,59.578C165.897,59.437 166.653,59.314 166.912,59.209C167.905,58.892 169.72,58.135 172.355,56.938L172.355,52.345C172.355,51.993 172.236,51.526 171.999,50.945C171.761,50.365 171.642,49.933 171.642,49.652C171.642,49.335 171.75,49.036 171.966,48.754C173.089,47.346 174.601,46.642 176.502,46.642C178.705,46.642 180.261,47.346 181.168,48.754C181.513,49.317 181.686,49.775 181.686,50.127C181.686,50.549 181.427,50.989 180.909,51.447C180.39,51.905 180.131,52.327 180.131,52.714L180.131,55.301C180.909,55.02 181.773,54.545 182.723,53.876C183.457,53.383 184.084,53.137 184.602,53.137C184.818,53.137 185.056,53.172 185.315,53.242C188.037,53.841 189.397,55.178 189.397,57.255C189.397,57.924 189.149,58.557 188.652,59.156C188.155,59.754 187.518,60.053 186.741,60.053Z" style="fill:white;fill-rule:nonzero;stroke:rgb(255,248,0);stroke-width:1px;stroke-linecap:butt;stroke-miterlimit:2;"/>
    </g>
</svg>
