<?xml version="1.0" encoding="UTF-8" standalone="no"?>
<!DOCTYPE svg PUBLIC "-//W3C//DTD SVG 1.1//EN" "http://www.w3.org/Graphics/SVG/1.1/DTD/svg11.dtd">
<svg width="100%" height="100%" viewBox="0 0 1024 400" version="1.1" xmlns="http://www.w3.org/2000/svg" xmlns:xlink="http://www.w3.org/1999/xlink" xml:space="preserve" xmlns:serif="http://www.serif.com/" style="fill-rule:evenodd;clip-rule:evenodd;stroke-linejoin:round;stroke-miterlimit:2;">
    <g transform="matrix(1,0,0,1.05429,0,-69.6885)">
        <path d="M80.637,405.39C79.473,404.808 64.997,407.07 50,406.641C38.286,406.306 26.254,404.33 20,398.076C12.948,391.025 7.671,378.443 10,341.166C13.713,281.752 11.794,302.575 10,274.771C8.836,256.735 42.012,293.59 26.653,247.512C22.8,235.954 -39.887,158.441 20,113.525C29.31,106.543 61.78,136.645 50,113.525C31.249,76.724 37.849,134.315 60,85.07C69.3,64.395 206.15,63.297 238.515,99.82C253.556,116.794 275.04,64.365 290,75.585C290.219,75.749 340.809,114.006 371.947,90.653C378.03,86.09 416.702,72.956 424.912,78.43C468.872,107.736 539.474,90.926 549.178,88.615C581.822,80.843 596.052,93.495 639.83,91.671C705.426,88.938 705.192,88.521 770.207,95.745C854.56,105.118 910.735,66.103 921.973,99.82C927.493,116.378 951.169,52.711 990,85.07C1001.87,94.964 1018.46,112.37 1020,113.525C1018.36,138.142 992.225,128.14 1000,151.465C1000.82,153.93 1021.69,179.174 1021.79,179.268C1026.16,227.272 1032.02,229.095 1010.59,271.958C1001.8,289.531 1021.86,342.488 1001.42,369.74C1000.77,370.612 1017.79,405.365 1010,417.047C1007.79,420.359 978.882,444.956 974.939,445.114C910.807,447.679 886.11,435.331 879.194,431.873C859.876,422.214 807.616,433.945 759.003,440.021C725.413,444.22 709.399,451.251 693.814,436.966C660.785,406.689 694.463,430.459 650,436.017C640.618,437.189 596.179,424.878 590,426.532C493.334,452.4 453.986,442.869 400.467,422.706C392.277,419.62 307.414,415.157 277.22,422.706C213.51,438.633 212.375,423.764 91.841,430.854C83.63,431.337 22.319,448.004 30,426.532C41.773,393.622 59.92,409.809 63.321,406.408C70.537,399.192 68.796,398.006 64.34,389.093" style="fill:url(#_Linear1);"/>
        <path d="M32.092,106.391L31.387,104.518L31.04,101.751L31.654,98.432L33.342,95.705L36.103,93.679L39.55,92.82L41.72,92.95L43.484,93.422L45.853,94.807C47.804,92.043 50.014,87.933 52.642,82.092C54.024,79.019 56.859,75.97 61.375,73.442C68.408,69.505 80.567,66.391 95.601,64.7C123.693,61.541 162.31,62.925 193.748,70.222C216.03,75.394 234.717,83.741 244.639,94.937C244.844,95.169 245.182,95.45 245.363,95.595C245.833,95.397 247.586,94.634 248.623,93.892C251.817,91.607 255.066,88.225 258.35,84.775C264.475,78.34 270.757,71.776 276.482,68.781C283.016,65.364 289.229,65.333 294.962,69.633C295.085,69.725 312.107,82.624 331.986,88.209C343.743,91.513 356.681,92.429 366.985,84.7C371.655,81.198 393.727,72.797 409.703,70.306C418.63,68.914 425.991,69.874 429.513,72.222C445.834,83.103 466.162,86.976 485.197,87.76C514.861,88.982 541.615,82.592 547.23,81.256C564.82,77.068 577.447,78.301 591.576,80.417C604.264,82.318 618.296,84.973 639.479,84.09C705.72,81.33 705.483,80.914 771.138,88.209C820.943,93.743 860.754,81.991 887.033,78.986C906.763,76.73 920.041,79.428 926.934,91.477C928.378,90.105 929.977,88.568 931.336,87.219C939.539,79.075 950.586,69.896 963.746,68.394C973.092,67.328 983.717,69.733 995.28,79.369C1007.04,89.169 1023.45,106.433 1024.97,107.577C1027.02,109.121 1028.15,111.522 1027.98,114.004C1027.11,127.16 1020.92,132.875 1014.56,137.04C1012.82,138.177 1011.07,139.159 1009.46,140.189C1008.39,140.872 1007.29,141.421 1006.79,142.508C1006.15,143.921 1006.52,145.778 1007.43,148.575C1007.47,148.634 1007.51,148.693 1007.54,148.744C1011.04,153.922 1024.79,170.622 1027.58,173.973L1027.98,174.458C1029,175.636 1029.62,177.083 1029.76,178.616C1034.31,228.657 1040.16,230.528 1017.82,275.209C1016.46,277.918 1016.23,281.75 1016.22,286.264C1016.22,294.901 1017.55,305.586 1018.36,316.701C1019.74,335.883 1019.23,356.127 1010.16,370.873C1012.62,377.313 1018.22,391.266 1019.66,402.762C1020.6,410.184 1019.65,416.765 1016.76,421.102C1014.86,423.951 994.768,441.638 984.563,448.61C980.293,451.527 976.695,452.639 975.276,452.695C908.388,455.371 882.676,442.192 875.463,438.585C868.67,435.189 857.203,435.281 843.202,436.38C819.421,438.247 789.082,443.915 760.048,447.544C742.985,449.677 730.381,452.498 720.069,453.003C707.551,453.616 697.864,451.23 688.255,442.422C684.259,438.759 680.983,435.693 678.531,433.371C678.508,433.393 678.485,433.415 678.462,433.437C674.612,437.058 667.173,441.524 651.045,443.54C645.03,444.292 625.466,440.198 609.401,436.911C601.923,435.381 592.833,434.153 591.597,433.988C492.735,460.364 452.375,450.427 397.514,429.758C395.302,428.924 386.848,428.22 375.403,427.489C346.518,425.644 299.842,424.897 279.259,430.043C215.016,446.104 213.88,431.278 92.336,438.428C86.402,438.777 53.569,447.031 37.144,444.517C29.986,443.421 25.136,440.311 22.893,436.184C21.22,433.104 20.619,429.141 22.424,424.093C24.329,418.77 26.443,414.532 28.655,411.155C22.814,409.409 17.749,406.852 14.196,403.298C6.418,395.52 -0.555,381.834 2.014,340.717C5.676,282.12 3.784,302.656 2.015,275.234C1.892,273.332 2.036,271.78 2.316,270.52L3.583,267.221L5.061,265.24L7.03,263.611L9.219,262.528L11.332,261.967C13.807,261.542 17.085,261.963 20.512,262.931C21,263.069 21.611,263.232 22.244,263.396C21.784,260.271 20.843,255.254 19.025,249.799C17.097,244.017 0.457,221.734 -8.215,195.281C-17.791,166.074 -18.042,132.383 15.038,107.573C18.726,104.807 24.258,104.107 30.622,105.933C31.105,106.072 31.595,106.225 32.092,106.391ZM44.241,398.717C48.348,397.531 52.288,397.601 55.794,398.12C56.987,398.297 58.432,398.579 59.62,398.825C59.771,398.641 59.903,398.477 60.011,398.341C59.525,397.31 58.266,394.653 57.111,392.344C55.219,388.56 56.922,384.031 60.911,382.237C64.901,380.442 69.676,382.057 71.568,385.841C73.385,389.476 74.751,391.999 75.441,394.092C75.833,395.28 76.067,396.396 76.162,397.476L76.134,397.89C76.827,397.836 77.443,397.793 77.973,397.763C79.812,397.66 81.121,397.745 81.8,397.857L84.367,398.677C88.273,400.63 89.772,405.224 87.714,408.928C86.097,411.836 82.766,413.338 79.519,412.905C78.308,413.028 72.368,413.609 65.085,413.976L64.629,414.152L61.292,414.492C60.553,414.467 59.719,414.373 58.806,414.217C55.785,414.294 52.703,414.31 49.759,414.225C48.809,414.198 47.858,414.159 46.909,414.107C43.577,416.067 40.588,420.55 37.576,428.97C37.576,428.97 37.575,428.971 37.575,428.971C38.423,429.217 39.727,429.56 40.738,429.671C42.342,429.847 44.107,429.904 45.98,429.881C62.626,429.674 86.461,423.568 91.346,423.281C210.871,416.25 212.004,431.162 275.181,415.368C296.87,409.946 346.042,410.403 376.478,412.347C390.459,413.24 400.718,414.635 403.42,415.653C455.491,435.271 493.778,444.397 587.828,419.229C590.171,418.601 596.926,419.017 605.474,420.631C616.439,422.701 631.282,426.144 641.438,427.74C644.783,428.265 647.451,428.682 648.955,428.494C658.651,427.282 663.862,425.33 666.659,423.122C668.83,421.408 669.012,419.626 669.403,418.922L670.865,416.941L673.24,415.218L675.56,414.452L677.905,414.335L680.092,414.781L682.114,415.713C683.889,416.773 688.029,421.109 699.374,431.509C705.349,436.986 711.46,438.228 719.244,437.847C729.232,437.358 741.431,434.564 757.957,432.498C787.26,428.835 817.882,423.14 841.882,421.256C859.737,419.854 874.261,420.829 882.924,425.16C889.493,428.445 912.868,439.814 973.215,437.586C980.511,433.387 1001.46,415.663 1003.24,412.991C1003.96,411.915 1004.02,410.408 1004.04,408.736C1004.08,405.967 1003.61,402.849 1002.91,399.657C1000.52,388.706 995.4,377.04 994.114,373.333L993.451,370.685L993.544,368.379L994.903,365.342C1000.21,358.262 1002.15,349.12 1002.77,339.462C1003.46,328.67 1002.41,317.236 1001.48,306.755C1000.06,290.66 999.444,276.54 1003.36,268.706C1023.56,228.302 1018.18,225.952 1014.02,182.037C1009.72,176.86 1000.6,165.783 996.041,159.677C993.86,156.754 992.621,154.499 992.372,153.753C989.682,145.681 990.336,140.363 992.114,136.473C993.474,133.498 995.586,131.174 998.235,129.18C1000.2,127.7 1002.52,126.417 1004.86,124.94C1007.67,123.17 1010.46,120.89 1011.57,116.141C1005.72,110.33 993.833,98.365 984.72,90.77C978.837,85.868 973.519,83.587 968.554,83.362C961.058,83.022 954.794,87.185 949.475,91.628C944.76,95.567 940.765,99.929 937.492,103.115C934.752,105.782 932.286,107.757 930.293,108.78L927.424,109.87L924.875,110.206L921.58,109.74L918.571,108.23L916.159,105.775L914.346,102.107C911.071,92.283 901.916,92.57 888.948,94.053C861.819,97.155 820.694,108.995 769.276,103.282C704.9,96.129 705.132,96.546 640.181,99.252C617.587,100.193 602.614,97.435 589.081,95.408C576.989,93.597 566.179,92.391 551.125,95.975C545.096,97.411 516.359,104.234 484.503,102.922C462.677,102.023 439.485,97.269 420.708,84.9C420.001,84.88 415.522,84.779 412.298,85.281C399.136,87.333 380.756,93.719 376.909,96.605C362.301,107.56 344.108,107.443 327.441,102.76C305.854,96.695 287.189,83.132 285.211,81.666C284.887,81.786 284.294,82.017 283.916,82.23C282.777,82.871 281.63,83.743 280.452,84.74C275.245,89.149 269.824,95.669 264.495,100.745C253.236,111.469 241.736,115.248 232.39,104.702C224.187,95.445 208.369,89.239 189.946,84.963C160.329,78.089 123.949,76.794 97.486,79.771C86.787,80.974 77.783,82.827 71.759,85.416C70.515,85.95 69.427,86.506 68.527,87.11C68.03,87.443 67.533,87.659 67.358,88.048C63.081,97.557 59.069,103.574 55.66,107.305C56.161,108.216 56.675,109.188 57.203,110.223C60.684,117.055 60.756,121.312 60.175,123.347L59.004,125.874L56.811,128.14L53.635,129.639L49.812,129.963C48.264,129.841 46.234,129.343 43.92,128.422C40.63,127.112 36.283,124.784 31.915,122.782C29.413,121.635 25.329,120.472 24.101,120.133C-1.82,140.179 -0.613,167.362 7.063,190.774C15.725,217.196 32.355,239.449 34.28,245.224C38.638,258.297 39.195,265.8 38.297,269.831L37.16,273.04L34.968,276.047L31.837,278.238L28.54,279.281C26.053,279.716 23.001,279.408 19.852,278.588C19.387,278.467 18.836,278.322 18.257,278.169C19.983,300.592 21.562,284.386 17.986,341.615C15.896,375.066 19.477,386.527 25.804,392.855C28,395.05 31.307,396.317 34.997,397.242C37.898,397.97 41.033,398.434 44.241,398.717Z"/>
    </g>
    <defs>
        <linearGradient id="_Linear1" x1="0" y1="0" x2="1" y2="0" gradientUnits="userSpaceOnUse" gradientTransform="matrix(1024.62,0,0,368.384,1.35236,261.31)"><stop offset="0" style="stop-color:rgb(78,78,78);stop-opacity:1"/><stop offset="0.45" style="stop-color:rgb(96,96,96);stop-opacity:1"/><stop offset="0.61" style="stop-color:rgb(137,137,137);stop-opacity:1"/><stop offset="0.76" style="stop-color:rgb(179,179,179);stop-opacity:1"/><stop offset="0.91" style="stop-color:rgb(190,190,190);stop-opacity:1"/><stop offset="1" style="stop-color:white;stop-opacity:1"/></linearGradient>
    </defs>
</svg>
