<?xml version="1.0" encoding="UTF-8" standalone="no"?>
<!DOCTYPE svg PUBLIC "-//W3C//DTD SVG 1.1//EN" "http://www.w3.org/Graphics/SVG/1.1/DTD/svg11.dtd">
<svg width="100%" height="100%" viewBox="0 0 279 119" version="1.1" xmlns="http://www.w3.org/2000/svg" xmlns:xlink="http://www.w3.org/1999/xlink" xml:space="preserve" xmlns:serif="http://www.serif.com/" style="fill-rule:evenodd;clip-rule:evenodd;stroke-linecap:round;stroke-linejoin:round;stroke-miterlimit:1.5;">
    <g id="OptionsButton">
        <path d="M274.31,31.81L274.31,86.81C274.31,101.987 261.987,114.31 246.81,114.31L31.81,114.31C16.632,114.31 4.31,101.987 4.31,86.81L4.31,31.81C4.31,16.632 16.632,4.31 31.81,4.31L246.81,4.31C261.987,4.31 274.31,16.632 274.31,31.81Z" style="fill:rgb(186,135,0);stroke:rgb(246,255,10);stroke-width:8.62px;"/>
        <path d="M71.267,61.849C71.569,66.565 70.576,71.432 68.286,76.448C65.997,81.464 63.556,84.289 60.964,84.922C59.927,85.204 58.912,85.309 57.918,85.239C56.881,85.133 55.866,85.028 54.873,84.922C45.973,84.077 41.07,76.386 40.163,61.849C39.904,57.906 40.681,53.682 42.496,49.177C44.181,44.988 45.93,42.401 47.745,41.415C48.177,41.169 48.652,41.045 49.17,41.045C49.559,41.045 50.164,41.142 50.985,41.336C51.805,41.529 52.432,41.626 52.864,41.626C53.382,41.626 54.322,41.529 55.683,41.336C57.043,41.142 58.048,41.045 58.696,41.045C59.301,41.045 59.797,41.116 60.186,41.257C66.882,43.474 70.576,50.338 71.267,61.849ZM62.519,61.849C62.087,57.449 61.504,54.14 60.769,51.922C59.56,48.191 57.767,46.325 55.391,46.325C54.743,46.325 54.063,46.466 53.35,46.748C52.637,47.029 51.697,48.842 50.531,52.186C49.321,55.847 48.717,59.068 48.717,61.849C48.717,65.474 49.494,69.285 51.049,73.28C52.605,77.275 54.095,79.273 55.521,79.273C56.86,79.273 58.35,77.477 59.992,73.887C61.72,70.156 62.584,66.618 62.584,63.274C62.584,62.781 62.562,62.306 62.519,61.849Z" style="fill:white;fill-rule:nonzero;stroke:rgb(255,248,0);stroke-width:1px;stroke-linecap:butt;stroke-miterlimit:2;"/>
        <path d="M101.464,69.452C101.464,73.183 100.492,76.58 98.548,79.642C96.388,82.951 93.731,84.605 90.577,84.605C88.806,84.605 86.992,83.461 85.134,81.173L85.134,87.932C85.134,88.495 85.415,89.217 85.977,90.097C86.538,90.977 86.819,91.645 86.819,92.103C86.819,92.455 86.711,92.807 86.495,93.159C85.588,94.743 83.817,95.535 81.181,95.535C79.021,95.535 77.682,94.901 77.164,93.634C76.991,93.212 76.905,92.807 76.905,92.42C76.905,92.033 77.045,91.513 77.326,90.862C77.607,90.211 77.747,89.657 77.747,89.199L77.747,59.156C77.747,58.769 77.574,58.302 77.229,57.757C76.883,57.211 76.71,56.762 76.71,56.41C76.71,56.129 76.797,55.829 76.969,55.513C77.488,54.527 79.086,54.034 81.765,54.034C83.449,54.034 84.573,54.316 85.134,54.879C85.35,55.09 85.458,55.354 85.458,55.671C85.458,55.917 85.35,56.305 85.134,56.833C84.918,57.361 84.789,57.765 84.745,58.047C86.733,55.724 89.065,54.562 91.744,54.562C95.329,54.562 97.943,56.217 99.585,59.525C100.837,62.095 101.464,65.404 101.464,69.452ZM93.299,69.452C93.299,66.108 93.213,63.978 93.04,63.063C92.608,60.775 91.528,59.631 89.8,59.631C88.806,59.631 87.91,60.731 87.111,62.931C86.311,65.131 85.912,67.305 85.912,69.452C85.912,71.071 86.344,72.972 87.208,75.154C88.072,77.477 88.936,78.639 89.8,78.639C90.837,78.639 91.701,77.565 92.392,75.418C92.997,73.553 93.299,71.564 93.299,69.452Z" style="fill:white;fill-rule:nonzero;stroke:rgb(255,248,0);stroke-width:1px;stroke-linecap:butt;stroke-miterlimit:2;"/>
        <path d="M129.004,60.053C128.658,60.053 128.118,59.939 127.384,59.71C126.649,59.481 126.088,59.367 125.699,59.367C125.397,59.367 125.094,59.42 124.792,59.525L122.394,60.529L122.394,78.586C122.394,79.255 122.837,80.117 123.723,81.173C124.608,82.229 124.965,83.074 124.792,83.708C124.576,84.482 123.939,85.098 122.88,85.556C121.822,86.013 120.688,86.242 119.478,86.242C117.189,86.242 115.612,85.415 114.748,83.761C114.489,83.268 114.337,81.701 114.294,79.061C114.251,77.301 114.273,74.556 114.359,70.825C114.445,66.601 114.489,63.925 114.489,62.799C114.229,62.869 113.797,63.107 113.193,63.512C112.588,63.917 111.983,64.119 111.378,64.119C110.903,64.119 110.298,64.013 109.564,63.802C106.54,62.957 105.028,62.095 105.028,61.215C105.028,61.004 105.093,60.775 105.222,60.529C105.525,59.965 106.086,59.649 106.907,59.578C108.16,59.437 108.916,59.314 109.175,59.209C110.169,58.892 111.983,58.135 114.618,56.938L114.618,52.345C114.618,51.993 114.499,51.526 114.262,50.945C114.024,50.365 113.905,49.933 113.905,49.652C113.905,49.335 114.013,49.036 114.229,48.754C115.353,47.346 116.865,46.642 118.765,46.642C120.969,46.642 122.524,47.346 123.431,48.754C123.777,49.317 123.949,49.775 123.949,50.127C123.949,50.549 123.69,50.989 123.172,51.447C122.653,51.905 122.394,52.327 122.394,52.714L122.394,55.301C123.172,55.02 124.036,54.545 124.986,53.876C125.721,53.383 126.347,53.137 126.865,53.137C127.081,53.137 127.319,53.172 127.578,53.242C130.3,53.841 131.661,55.178 131.661,57.255C131.661,57.924 131.412,58.557 130.915,59.156C130.419,59.754 129.781,60.053 129.004,60.053Z" style="fill:white;fill-rule:nonzero;stroke:rgb(255,248,0);stroke-width:1px;stroke-linecap:butt;stroke-miterlimit:2;"/>
        <path d="M145.787,44.425C145.917,44.53 145.981,44.706 145.981,44.953C145.981,45.269 145.852,45.815 145.593,46.589C145.29,47.54 145.096,48.191 145.009,48.543C144.923,48.895 144.966,49.669 145.139,50.866C145.139,51.605 144.869,52.089 144.329,52.318C143.789,52.547 143.109,52.661 142.288,52.661C141.121,52.661 139.933,52.468 138.724,52.081C137.255,51.588 136.521,50.937 136.521,50.127C136.521,49.881 136.65,49.537 136.909,49.097C137.169,48.657 137.32,48.297 137.363,48.015C137.449,47.733 137.449,47.029 137.363,45.903C137.277,45.023 137.493,44.425 138.011,44.108C138.702,43.685 139.933,43.474 141.705,43.474C143.649,43.474 145.009,43.791 145.787,44.425ZM146.629,57.308C146.629,57.801 146.295,58.566 145.625,59.605C144.955,60.643 144.621,61.497 144.621,62.165L144.621,77.689C144.621,78.393 144.858,79.387 145.333,80.672C145.809,81.957 146.046,82.845 146.046,83.338C146.046,84.042 145.701,84.57 145.009,84.922C143.929,85.485 142.763,85.767 141.51,85.767C139.869,85.767 138.702,85.309 138.011,84.394C137.104,83.268 136.65,79.906 136.65,74.309C136.65,72.972 136.683,70.886 136.747,68.053C136.812,65.219 136.845,63.151 136.845,61.849C136.845,61.356 136.78,60.713 136.65,59.921C136.521,59.129 136.456,58.557 136.456,58.205C136.456,57.044 136.974,56.041 138.011,55.196C138.443,54.844 139.242,54.668 140.409,54.668C141.575,54.668 142.741,54.817 143.908,55.117C145.074,55.416 145.819,55.759 146.143,56.146C146.467,56.533 146.629,56.921 146.629,57.308Z" style="fill:white;fill-rule:nonzero;stroke:rgb(255,248,0);stroke-width:1px;stroke-linecap:butt;stroke-miterlimit:2;"/>
        <path d="M170.929,56.78C173.824,59.173 175.271,63.204 175.271,68.871C175.271,73.271 174.256,77.02 172.225,80.117C169.936,83.602 166.782,85.345 162.765,85.345C158.79,85.345 155.723,83.778 153.563,80.645C151.662,77.9 150.712,74.415 150.712,70.191C150.712,66.46 151.446,63.116 152.915,60.159C154.47,56.991 156.457,55.125 158.877,54.562C160.129,54.281 161.425,54.14 162.765,54.14C166.091,54.14 168.813,55.02 170.929,56.78ZM163.542,59.314C162.117,59.209 160.885,60.3 159.849,62.588C158.941,64.665 158.488,66.847 158.488,69.135C158.488,72.444 158.661,74.785 159.006,76.157C159.611,78.621 160.864,79.977 162.765,80.223C163.974,80.364 165.097,79.009 166.134,76.157C167.128,73.412 167.625,70.473 167.625,67.34C167.625,62.201 166.264,59.525 163.542,59.314Z" style="fill:white;fill-rule:nonzero;stroke:rgb(255,248,0);stroke-width:1px;stroke-linecap:butt;stroke-miterlimit:2;"/>
        <path d="M210.004,80.645C209.917,81.42 209.291,82.08 208.125,82.625C206.958,83.171 205.662,83.444 204.237,83.444C202.12,83.444 200.673,82.898 199.895,81.807C200.241,70.965 199.852,65.474 198.729,65.333C197.649,65.193 195.013,70.05 190.823,79.906L190.823,83.074C190.78,84.341 190.359,85.239 189.559,85.767C188.76,86.295 187.907,86.559 187,86.559C185.445,86.559 183.781,85.873 182.01,84.5C181.492,84.148 181.211,81.473 181.168,76.474C181.211,79.537 181.233,73.852 181.233,59.42C181.233,59.103 181.189,58.672 181.103,58.126C181.017,57.581 180.973,57.185 180.973,56.938C180.973,56.269 181.189,55.689 181.621,55.196C182.14,54.562 182.961,54.245 184.084,54.245C185.25,54.245 186.471,54.536 187.745,55.117C189.019,55.697 189.786,56.252 190.045,56.78C190.218,57.132 190.305,57.484 190.305,57.836C190.305,58.188 190.132,58.681 189.786,59.314C189.441,59.948 189.268,60.476 189.268,60.898L189.268,68.185C191.989,63.468 194.041,60.353 195.424,58.839C197.886,56.234 200.673,55.02 203.783,55.196C205.641,55.301 206.958,56.709 207.736,59.42C208.341,61.461 208.665,64.489 208.708,68.501L208.708,78.005C208.794,78.252 209.097,78.692 209.615,79.325C209.917,79.677 210.047,80.117 210.004,80.645Z" style="fill:white;fill-rule:nonzero;stroke:rgb(255,248,0);stroke-width:1px;stroke-linecap:butt;stroke-miterlimit:2;"/>
        <path d="M236.183,76.949C236.183,79.413 235.103,81.517 232.943,83.259C230.783,85.001 228.234,85.873 225.297,85.873C223.439,85.873 221.517,85.151 219.529,83.708C217.974,82.546 216.57,81.121 215.317,79.431C214.237,77.953 213.762,77.02 213.892,76.633C214.367,75.753 215.857,75.313 218.363,75.313C219.4,75.313 220.221,75.436 220.825,75.682C221.862,76.14 222.445,76.721 222.575,77.425C222.705,78.234 222.921,78.745 223.223,78.956C224.13,80.082 224.951,80.645 225.685,80.645C226.247,80.645 226.776,80.337 227.273,79.721C227.77,79.105 228.018,78.375 228.018,77.53C228.018,77.002 227.91,76.474 227.694,75.946C227.478,75.418 226.312,74.609 224.195,73.517C221.646,72.215 219.832,71.071 218.752,70.085C216.894,68.396 215.965,66.425 215.965,64.172C215.965,61.532 216.916,59.217 218.817,57.229C220.717,55.24 223.137,54.245 226.074,54.245C229.098,54.245 231.409,55.178 233.008,57.044C234.304,58.557 234.844,60.089 234.628,61.637C235.103,62.06 235.341,62.764 235.341,63.749C235.341,64.805 234.865,65.703 233.915,66.442C232.965,67.181 231.993,67.551 230.999,67.551C229.53,67.551 228.256,66.759 227.176,65.175C226.873,64.753 226.722,64.189 226.722,63.485C226.722,63.169 226.755,62.72 226.819,62.139C226.884,61.558 226.917,61.145 226.917,60.898C226.917,59.983 226.506,59.525 225.685,59.525C224.433,59.525 223.806,60.529 223.806,62.535C223.806,64.577 224.627,66.213 226.269,67.445C226.917,67.938 228.321,68.642 230.481,69.557C232.338,70.332 233.656,71.124 234.433,71.933C235.6,73.165 236.183,74.837 236.183,76.949Z" style="fill:white;fill-rule:nonzero;stroke:rgb(255,248,0);stroke-width:1px;stroke-linecap:butt;stroke-miterlimit:2;"/>
    </g>
</svg>
